<svg width="24" height="25" viewBox="0 0 24 25" fill="none" xmlns="http://www.w3.org/2000/svg">
    <path d="M13.2577 12.7449L9.20513 8.6923C9.07479 8.56197 9.00802 8.40257 9.00482 8.2141C9.00161 8.02565 9.06827 7.8606 9.20482 7.71893C9.34136 7.57726 9.50353 7.50435 9.69135 7.50018C9.87917 7.49601 10.0455 7.56476 10.1904 7.70643L14.624 12.1401C14.7093 12.2285 14.7732 12.3226 14.8159 12.4223C14.8585 12.522 14.8798 12.6295 14.8798 12.7449C14.8798 12.8603 14.8584 12.968 14.8157 13.068C14.7729 13.1679 14.7088 13.2607 14.6233 13.3462L10.1911 17.7778C10.0522 17.9167 9.88717 17.9857 9.69615 17.9848C9.50513 17.9838 9.34136 17.9125 9.20482 17.7708C9.06827 17.6292 9 17.4657 9 17.2805C9 17.0952 9.06838 16.9342 9.20513 16.7975L13.2577 12.7449Z" fill="white" fill-opacity="0.6"/>
</svg>
