<svg width="180" height="180" viewBox="26 26 180 180" fill="none" xmlns="http://www.w3.org/2000/svg">
    <g filter="url(#filter0_ddd_215_1051)">
        <rect x="26" y="26" width="180" height="180" rx="100" fill="url(#paint0_radial_215_1051)"/>
        <path d="M91.3682 139.915C91.5258 139.735 91.6068 139.64 91.6923 139.55C97.3914 133.846 103.095 128.152 108.79 122.439C109.051 122.178 109.213 122.255 109.46 122.399C116.658 126.621 123.861 130.839 131.064 135.062C131.698 135.431 132.333 135.8 132.968 136.169C132.99 136.142 133.013 136.115 133.035 136.088C119.17 122.228 105.305 108.367 91.3502 94.4121C91.6068 94.4121 91.7419 94.4121 91.8814 94.4121C101.695 94.4121 111.509 94.3806 121.322 94.4211C127.642 94.4481 133.076 96.7304 137.537 101.214C140.675 104.365 142.741 108.151 143.583 112.531C145.068 120.274 143.133 127.098 137.758 132.87C134.647 136.21 130.789 138.33 126.332 139.352C124.644 139.739 122.943 139.915 121.219 139.915C111.473 139.919 101.722 139.915 91.9759 139.915C91.8094 139.915 91.6473 139.915 91.3727 139.915H91.3682Z" fill="white"/>
    </g>
    <defs>
        <radialGradient id="paint0_radial_215_1051" cx="0" cy="0" r="1" gradientUnits="userSpaceOnUse" gradientTransform="translate(122.25 116) rotate(53.4159) scale(100.251)">
            <stop stop-color="#35164F"/>
            <stop offset="0.526042" stop-color="#1E0D2D"/>
            <stop offset="1" stop-color="#161417"/>
        </radialGradient>
    </defs>
</svg>
