<svg width="32" height="33" viewBox="0 0 32 33" fill="none" xmlns="http://www.w3.org/2000/svg">
    <path d="M6.38764 25.8326C6.44913 25.7623 6.48075 25.7254 6.51413 25.6903C8.73816 23.4645 10.9639 21.2422 13.1862 19.0129C13.2881 18.911 13.3513 18.9409 13.448 18.9971C16.257 20.6449 19.0678 22.291 21.8786 23.9388C22.1263 24.0829 22.374 24.2269 22.6217 24.371C22.6304 24.3604 22.6392 24.3499 22.648 24.3394C17.2373 18.9304 11.8265 13.5214 6.38062 8.07548C6.48075 8.07548 6.53345 8.07548 6.58791 8.07548C10.4176 8.07548 14.2473 8.06318 18.077 8.07899C20.5434 8.08953 22.6638 8.9802 24.4047 10.7299C25.6292 11.9596 26.4355 13.437 26.764 15.1463C27.3438 18.1679 26.5884 20.8312 24.4908 23.0833C23.2769 24.3868 21.7714 25.2142 20.0322 25.613C19.3734 25.7641 18.7094 25.8326 18.0366 25.8326C14.2332 25.8343 10.4281 25.8326 6.6248 25.8326C6.5598 25.8326 6.49656 25.8326 6.3894 25.8326H6.38764Z" fill="#8D65FF"/>
</svg>
