<svg width="24" height="25" viewBox="0 0 24 25" fill="none" xmlns="http://www.w3.org/2000/svg">
    <path d="M12.0104 17.149C12.2028 17.149 12.3674 17.0805 12.5043 16.9435C12.6411 16.8064 12.7096 16.641 12.7096 16.4471V12.2173C12.7096 12.027 12.6409 11.8633 12.5036 11.726C12.3662 11.5888 12.2024 11.5202 12.0121 11.5202C11.8181 11.5202 11.6527 11.5888 11.5158 11.726C11.379 11.8633 11.3106 12.027 11.3106 12.2173V16.4471C11.3106 16.641 11.3791 16.8064 11.5162 16.9435C11.6532 17.0805 11.818 17.149 12.0104 17.149ZM11.9973 9.8692C12.2177 9.8692 12.4011 9.79685 12.5475 9.65213C12.694 9.50741 12.7673 9.32489 12.7673 9.10455C12.7673 8.8842 12.6949 8.7008 12.5502 8.55433C12.4055 8.40785 12.2229 8.3346 12.0026 8.3346C11.7822 8.3346 11.5988 8.40697 11.4524 8.5517C11.3059 8.69642 11.2327 8.87895 11.2327 9.09928C11.2327 9.31961 11.305 9.50302 11.4497 9.6495C11.5944 9.79597 11.777 9.8692 11.9973 9.8692ZM12.0023 21.798C10.7164 21.798 9.5075 21.5536 8.3756 21.0649C7.2437 20.5761 6.2591 19.9129 5.4218 19.075C4.5845 18.2372 3.92186 17.2534 3.43388 16.1236C2.9459 14.9939 2.7019 13.7868 2.7019 12.5023C2.7019 11.2164 2.94628 10.0075 3.43503 8.8756C3.92376 7.7437 4.58705 6.7591 5.4249 5.9218C6.26274 5.0845 7.24653 4.42186 8.37628 3.93388C9.50603 3.4459 10.7132 3.2019 11.9977 3.2019C13.2835 3.2019 14.4924 3.44628 15.6243 3.93503C16.7562 4.42376 17.7408 5.08705 18.5781 5.9249C19.4154 6.76274 20.078 7.74653 20.566 8.87628C21.054 10.006 21.298 11.2132 21.298 12.4977C21.298 13.7835 21.0536 14.9924 20.5649 16.1243C20.0761 17.2562 19.4129 18.2408 18.575 19.0781C17.7372 19.9154 16.7534 20.578 15.6236 21.066C14.4939 21.554 13.2868 21.798 12.0023 21.798Z" fill="white"/>
</svg>
