<svg width="101" height="33" viewBox="0 0 101 33" fill="none" xmlns="http://www.w3.org/2000/svg">
<g id="Logo" clip-path="url(#clip0_201_3798)">
<path id="Vector" d="M0.512037 32.7238C0.617364 32.5943 0.671532 32.5263 0.728709 32.4616C4.53852 28.3606 8.35134 24.266 12.1581 20.1585C12.3327 19.9708 12.441 20.0258 12.6065 20.1294C17.4184 23.1655 22.2334 26.1984 27.0483 29.2345C27.4726 29.4999 27.8969 29.7653 28.3212 30.0307C28.3363 30.0113 28.3513 29.9919 28.3664 29.9725C19.0977 20.0064 9.82892 10.0403 0.5 0.00619761C0.671532 0.00619761 0.761812 0.00619761 0.855101 0.00619761C7.41544 0.00619761 13.9758 -0.01646 20.5361 0.0126712C24.7612 0.032092 28.3935 1.67315 31.3757 4.897C33.4732 7.16276 34.8545 9.88491 35.4172 13.0343C36.4103 18.6016 35.1163 23.5086 31.5232 27.6582C29.4437 30.0599 26.8647 31.5844 23.8855 32.3192C22.757 32.5975 21.6195 32.7238 20.4669 32.7238C13.9517 32.727 7.43349 32.7238 0.918297 32.7238C0.806952 32.7238 0.698616 32.7238 0.515047 32.7238H0.512037Z" fill="#6C26D9"/>
<g id="Group">
<path id="Vector_2" d="M43.9427 31.5394C42.7209 30.7497 41.7489 29.6297 41.0236 28.1829C40.2984 26.736 39.9373 25.0885 39.9373 23.2403C39.9373 21.3921 40.2893 19.7251 40.9935 18.2977C41.6977 16.8735 42.6607 15.7665 43.8795 14.9767C45.1013 14.187 46.4464 13.7921 47.915 13.7921C49.0314 13.7921 50.0426 14.0251 50.9424 14.4945C51.8422 14.9606 52.5734 15.6403 53.1302 16.5304H53.2234V8.25391H57.6622V32.2904H53.2866V29.5876H53.1934C51.9926 31.6786 50.2562 32.7273 47.9782 32.7273C46.5096 32.7273 45.1645 32.3325 43.9427 31.5427V31.5394ZM52.6487 25.9819C53.0308 25.1791 53.2234 24.2696 53.2234 23.2435C53.2234 21.7093 52.8051 20.4437 51.9655 19.4532C51.1259 18.4628 50.0667 17.9675 48.7847 17.9675C47.5027 17.9675 46.4404 18.4628 45.6038 19.4532C44.7672 20.4437 44.3459 21.706 44.3459 23.2435C44.3459 24.2663 44.5385 25.1791 44.9207 25.9819C45.3029 26.7846 45.8325 27.4125 46.5036 27.8689C47.1747 28.3253 47.936 28.5519 48.7847 28.5519C49.6333 28.5519 50.3947 28.3221 51.0658 27.8689C51.7398 27.4125 52.2665 26.7846 52.6487 25.9819Z" fill="white"/>
<path id="Vector_3" d="M68.0625 28.5195C69.221 28.5195 70.0787 28.0631 70.6384 27.1504C71.1982 26.2376 71.478 25.0691 71.478 23.6449V14.2291H75.9168V24.5447C75.9168 26.2149 75.5707 27.665 74.8756 28.9015C74.1804 30.1379 73.2415 31.0831 72.0498 31.7401C70.8611 32.3972 69.531 32.7241 68.0625 32.7241C66.5939 32.7241 65.2698 32.3972 64.0901 31.7401C62.9105 31.0831 61.9746 30.1379 61.2824 28.9015C60.5903 27.665 60.2412 26.2246 60.2412 24.5771V14.2258H64.6499V23.6417C64.6499 25.0432 64.9358 26.2085 65.5045 27.1309C66.0733 28.0534 66.9279 28.5163 68.0655 28.5163L68.0625 28.5195Z" fill="white"/>
<path id="Vector_4" d="M84.1564 14.7794C85.014 14.323 86.1064 14.1061 87.4305 14.1288L87.8699 14.1612V17.9676H87.7465C85.8837 17.9676 84.2226 18.5794 83.3649 19.3918C82.5072 20.2043 82.0619 22.1302 82.0619 24.1791V32.7274H77.6532V14.2291H81.9987V16.9998H82.092C82.6096 15.977 83.2987 15.2358 84.1564 14.7794Z" fill="white"/>
<path id="Vector_5" d="M97.0544 14.229H100.5V17.9675H97.0544V32.7241H92.6156V17.9675H89.1699V14.229H92.6156V8.25391H97.0544V14.229Z" fill="white"/>
</g>
</g>
<defs>
<clipPath id="clip0_201_3798">
<rect width="100" height="32.7273" fill="white" transform="translate(0.5)"/>
</clipPath>
</defs>
</svg>
